<svg height="10" viewBox="0 0 14 10" width="14" xmlns="http://www.w3.org/2000/svg"><path d="m7 0c1.36980138 0 2.67050932.37543783 3.902288 1.12622835 1.2316966.75076215 2.2122488 1.74460823 2.9415198 2.98150986.1041464.18902429.1561922.37538107.1561922.55907035 0 .1837744-.0520458.37004605-.1561922.55901358-.7291068 1.24226504-1.7098232 2.23750163-2.9415198 2.98556788-1.23175132.74803788-2.53245926 1.12194331-3.902288 1.12194331-1.36980138 0-2.67056404-.37515405-3.90234273-1.1260297-1.23180604-.75059188-2.21230351-1.7445231-2.94146505-2.98148149-.10411903-.18896753-.15619222-.37532431-.15619222-.55901358 0-.18368928.05207319-.37004606.15619222-.55907035.72916154-1.23690163 1.70965901-2.23074771 2.94146505-2.98150986 1.23177869-.75093241 2.53254135-1.12622835 3.90234273-1.12622835zm3.0233647 1.80681229c.3177204.56156758.476649 1.16936255.476649 1.8228741 0 .99935136-.3423751 1.85408964-1.02737157 2.56427158s-1.50905545 1.0654148-2.47264213 1.0654148c-.96350459 0-1.78780985-.35503422-2.47264213-1.0654148-.68483228-.71038059-1.02734419-1.56492022-1.02734419-2.56427158 0-.65351155.15890123-1.26122138.47659423-1.8228741-1.19270326.63183093-2.18488505 1.58523869-2.97654536 2.85999627.69268567 1.10735713 1.56118336 1.98913942 2.60543834 2.64543199 1.04425499.65629256 2.17574557.98433952 3.39449911.98433952 1.21878091 0 2.35027149-.3282456 3.3945812-.98433952 1.0443097-.65629257 1.9127253-1.53807486 2.6053015-2.64543199-.7916329-1.27467244-1.7838694-2.22816534-2.976518-2.85999627zm-2.82217742-.77935478c-.48363568 0-.87629901.40292882-.88345718.90274076-.42094282-.24345931-.9537556-.0922679-1.19556755.34211282-.24181196.4343441-.10167428.98846431.31212214 1.24478032-.41378465.25634043-.5539341.81046064-.31211037 1.24481695.24182372.43436852.7746365.58554771 1.19557932.34207619.0071464.49981195.39982151.90272855.88345718.90272855.48364745 0 .87628724-.40294102.88344541-.90272855.42094282.2434471.95376737.09226791 1.19555578-.34212503.24182372-.43436852.1016625-.98848873-.31211037-1.24480474.41377287-.25634042.55392232-.81046064.31208682-1.24481695-.24182372-.4343563-.77461296-.5855355-1.195544-.34207619-.00718172-.49977531-.39983328-.90270413-.88345718-.90270413zm0 1.65027315c.4469736 0 .80934421.37577468.80934421.83933633 0 .46356166-.36235884.83933633-.80934421.83933633-.44698538 0-.80934422-.37577467-.80934422-.83933633 0-.46356165.36235884-.83933633.80934422-.83933633z" fill="#98a7b9"/></svg>