<?xml version="1.0" encoding="UTF-8"?>
<svg width="12px" height="13px" viewBox="0 0 12 13" version="1.1" xmlns="http://www.w3.org/2000/svg" xmlns:xlink="http://www.w3.org/1999/xlink">
    <!-- Generator: Sketch 58 (84663) - https://sketch.com -->
    <title>off icon</title>
    <desc>Created with Sketch.</desc>
    <g id="COF-Symbols" stroke="none" stroke-width="1" fill="none" fill-rule="evenodd">
        <g id="Side-Navigation/Expanded" transform="translate(-30.000000, -219.000000)" fill="#98A7B9">
            <g id="Cost-of-hard-goods" transform="translate(0.000000, 200.000000)">
                <g id="off-icon" transform="translate(30.000000, 19.000000)">
                    <g id="package">
                        <path d="M11.994508,3.06727689 C11.994508,3.01784897 11.983524,2.96842105 11.9615561,2.92173913 C11.9176201,2.82837529 11.8324943,2.76521739 11.7391304,2.74599542 L6.14553776,0.0329519451 C6.05491991,-0.0109839817 5.94782609,-0.0109839817 5.85720824,0.0329519451 L0.208695652,2.77070938 C0.0988558352,2.8228833 0.0274599542,2.93272311 0.0219679634,3.05629291 L0.0219679634,3.0590389 C0.0219679634,3.0617849 0.0219679634,3.06453089 0.0219679634,3.07002288 L0.0219679634,9.94050343 C0.0219679634,10.0668192 0.0933638444,10.182151 0.208695652,10.2370709 L5.85720824,12.9748284 C5.85995423,12.9748284 5.85995423,12.9748284 5.86270023,12.9775744 C5.87093822,12.9803204 5.8791762,12.9830664 5.88741419,12.9885584 C5.89016018,12.9885584 5.89290618,12.9913043 5.89839817,12.9913043 C5.90663616,12.9940503 5.91487414,12.9967963 5.92311213,12.9995423 C5.92585812,12.9995423 5.92860412,13.0022883 5.93135011,13.0022883 C5.9395881,13.0050343 5.95057208,13.0050343 5.95881007,13.0077803 C5.96155606,13.0077803 5.96430206,13.0077803 5.96704805,13.0077803 C5.97803204,13.0077803 5.99176201,13.0105263 6.002746,13.0105263 C6.01372998,13.0105263 6.02745995,13.0105263 6.03844394,13.0077803 C6.04118993,13.0077803 6.04393593,13.0077803 6.04668192,13.0077803 C6.05491991,13.0077803 6.06590389,13.0050343 6.07414188,13.0022883 C6.07688787,13.0022883 6.07963387,12.9995423 6.08237986,12.9995423 C6.09061785,12.9967963 6.09885584,12.9940503 6.10709382,12.9913043 C6.10983982,12.9913043 6.11258581,12.9885584 6.1180778,12.9885584 C6.12631579,12.9858124 6.13455378,12.9830664 6.14279176,12.9775744 C6.14553776,12.9775744 6.14553776,12.9775744 6.14828375,12.9748284 L11.8132723,10.228833 C11.9258581,10.173913 12,10.0585812 12,9.93226545 L12,3.07551487 C11.994508,3.07276888 11.994508,3.07002288 11.994508,3.06727689 Z M6,0.694736842 L10.8988558,3.07002288 L9.09473684,3.94599542 L4.19588101,1.57070938 L6,0.694736842 Z M6,5.44530892 L1.10114416,3.07002288 L3.44073227,1.93592677 L8.3395881,4.31121281 L6,5.44530892 Z M0.681006865,3.6 L5.67048055,6.01922197 L5.67048055,12.1510297 L0.681006865,9.73180778 L0.681006865,3.6 Z M6.32951945,12.1510297 L6.32951945,6.01922197 L8.67185355,4.88237986 L8.67185355,6.48604119 C8.67185355,6.66727689 8.8201373,6.81556064 9.001373,6.81556064 C9.1826087,6.81556064 9.33089245,6.66727689 9.33089245,6.48604119 L9.33089245,4.5610984 L11.3354691,3.58901602 L11.3354691,9.7208238 L6.32951945,12.1510297 Z" id="Shape"></path>
                    </g>
                </g>
            </g>
        </g>
    </g>
</svg>