<?xml version="1.0" encoding="UTF-8"?>
<svg width="14px" height="15px" viewBox="0 0 14 15" version="1.1" xmlns="http://www.w3.org/2000/svg" xmlns:xlink="http://www.w3.org/1999/xlink">
    <!-- Generator: Sketch 58 (84663) - https://sketch.com -->
    <title>off icon</title>
    <desc>Created with Sketch.</desc>
    <g id="COF-Symbols" stroke="none" stroke-width="1" fill="none" fill-rule="evenodd">
        <g id="Side-Navigation/Expanded" transform="translate(-29.000000, -169.000000)" fill="#98A7B9">
            <g id="Cost-of-Fresh" transform="translate(0.000000, 150.000000)">
                <g id="off-icon" transform="translate(29.000000, 19.000000)">
                    <g id="Group-7" transform="translate(0.583333, 0.000000)">
                        <path d="M6.63725217,7.6448496 C6.23290327,7.6445128 5.90534867,7.31678976 5.90484343,6.91260925 C5.90484343,6.72197078 5.75041281,6.56770856 5.55994273,6.56770856 C5.36947266,6.56770856 5.21504204,6.72197078 5.21504204,6.91260925 C5.21605251,7.57327598 5.67109237,8.14653866 6.31441301,8.29726427 L6.31441301,8.60814646 C6.31441301,8.79861654 6.46884363,8.95304716 6.6593137,8.95304716 C6.84978377,8.95304716 7.0042144,8.79861654 7.0042144,8.60814646 L7.0042144,8.28648612 C7.69384739,8.1022472 8.14013001,7.43518097 8.04716849,6.72735986 C7.95420698,6.01970718 7.35113599,5.49039912 6.63725217,5.49039912 C6.23273487,5.49039912 5.90484343,5.16250768 5.90484343,4.75799034 C5.90484343,4.35347304 6.23273487,4.02558159 6.63725217,4.02558159 C7.04160111,4.02558159 7.36966091,4.35347304 7.36966091,4.75799034 C7.36966091,4.94846041 7.52409158,5.10289103 7.71456161,5.10289103 C7.90503168,5.10289103 8.0594623,4.94846041 8.0594623,4.75799034 C8.05845187,4.11416451 7.62597874,3.55100634 7.0042144,3.38394507 L7.0042144,3.04662274 C7.0042144,2.85615267 6.84978377,2.70172205 6.6593137,2.70172205 C6.46884363,2.70172205 6.31441301,2.85615267 6.31441301,3.04662274 L6.31441301,3.37316692 C5.61063369,3.53702842 5.14178431,4.20274738 5.22430452,4.92050461 C5.30682468,5.63843024 5.9146111,6.18020051 6.63725217,6.18020051 C7.03958017,6.18323184 7.36410344,6.51028126 7.36410344,6.91244086 C7.36410344,7.31476885 7.03958017,7.64181827 6.63725217,7.6448496 Z" id="Path"></path>
                        <path d="M13.0024676,6.50126257 C13.0024676,2.91645128 10.0860451,-8.52651283e-14 6.50126257,-8.52651283e-14 C2.91648002,-8.52651283e-14 -5.68434189e-14,2.91645128 -5.68434189e-14,6.50126257 C-5.68434189e-14,6.71420999 0.172651525,6.88686151 0.385598943,6.88686151 C0.598546362,6.88686151 0.771197887,6.71418124 0.771197887,6.50126257 C0.771197887,3.34168506 3.34168506,0.771226628 6.50123382,0.771226628 C9.66078259,0.771226628 12.2312698,3.3417138 12.2312698,6.50126257 C12.2312698,9.66078259 9.66078259,12.2312698 6.50123382,12.2312698 L5.8322415,12.2312698 L6.7888235,11.1604969 C6.93072138,11.0016989 6.91695409,10.7579116 6.75815608,10.6160137 C6.59935806,10.4741158 6.35554204,10.4879119 6.2136729,10.6467099 L4.84625673,12.1773503 C4.62241619,12.4279206 4.62241619,12.8058168 4.84625673,13.0563871 L6.2136729,14.5870275 C6.2898672,14.672333 6.39537806,14.715733 6.50137753,14.715733 C6.59280495,14.715733 6.68460601,14.6833698 6.75815608,14.6177237 C6.91698283,14.4758258 6.93072138,14.2320385 6.7888235,14.0732405 L5.8322415,13.0024676 L6.50123382,13.0024676 C10.0860451,13.0024676 13.0024676,10.0860164 13.0024676,6.50126257 Z" id="Path"></path>
                    </g>
                </g>
            </g>
        </g>
    </g>
</svg>