<?xml version="1.0" encoding="UTF-8"?>
<svg width="12px" height="12px" viewBox="0 0 12 12" version="1.1" xmlns="http://www.w3.org/2000/svg" xmlns:xlink="http://www.w3.org/1999/xlink">
    <!-- Generator: Sketch 58 (84663) - https://sketch.com -->
    <title>on icon</title>
    <desc>Created with Sketch.</desc>
    <defs>
        <path d="M5,12 C5.55228475,12 6,12.4477153 6,13 L6,14 C6,14.5522847 5.55228475,15 5,15 L4,15 C3.44771525,15 3,14.5522847 3,14 L3,13 C3,12.4477153 3.44771525,12 4,12 L5,12 Z M9.5,12 C10.0522847,12 10.5,12.4477153 10.5,13 L10.5,14 C10.5,14.5522847 10.0522847,15 9.5,15 L8.5,15 C7.94771525,15 7.5,14.5522847 7.5,14 L7.5,13 C7.5,12.4477153 7.94771525,12 8.5,12 L9.5,12 Z M14,12 C14.5522847,12 15,12.4477153 15,13 L15,14 C15,14.5522847 14.5522847,15 14,15 L13,15 C12.4477153,15 12,14.5522847 12,14 L12,13 C12,12.4477153 12.4477153,12 13,12 L14,12 Z M5,7.5 C5.55228475,7.5 6,7.94771525 6,8.5 L6,9.5 C6,10.0522847 5.55228475,10.5 5,10.5 L4,10.5 C3.44771525,10.5 3,10.0522847 3,9.5 L3,8.5 C3,7.94771525 3.44771525,7.5 4,7.5 L5,7.5 Z M9.5,7.5 C10.0522847,7.5 10.5,7.94771525 10.5,8.5 L10.5,9.5 C10.5,10.0522847 10.0522847,10.5 9.5,10.5 L8.5,10.5 C7.94771525,10.5 7.5,10.0522847 7.5,9.5 L7.5,8.5 C7.5,7.94771525 7.94771525,7.5 8.5,7.5 L9.5,7.5 Z M14,7.5 C14.5522847,7.5 15,7.94771525 15,8.5 L15,9.5 C15,10.0522847 14.5522847,10.5 14,10.5 L13,10.5 C12.4477153,10.5 12,10.0522847 12,9.5 L12,8.5 C12,7.94771525 12.4477153,7.5 13,7.5 L14,7.5 Z M5,3 C5.55228475,3 6,3.44771525 6,4 L6,5 C6,5.55228475 5.55228475,6 5,6 L4,6 C3.44771525,6 3,5.55228475 3,5 L3,4 C3,3.44771525 3.44771525,3 4,3 L5,3 Z M9.5,3 C10.0522847,3 10.5,3.44771525 10.5,4 L10.5,5 C10.5,5.55228475 10.0522847,6 9.5,6 L8.5,6 C7.94771525,6 7.5,5.55228475 7.5,5 L7.5,4 C7.5,3.44771525 7.94771525,3 8.5,3 L9.5,3 Z M14,3 C14.5522847,3 15,3.44771525 15,4 L15,5 C15,5.55228475 14.5522847,6 14,6 L13,6 C12.4477153,6 12,5.55228475 12,5 L12,4 C12,3.44771525 12.4477153,3 13,3 L14,3 Z" id="path-1"></path>
    </defs>
    <g id="COF-Symbols" stroke="none" stroke-width="1" fill="none" fill-rule="evenodd">
        <g id="Side-Navigation/Expanded" transform="translate(-30.000000, -69.000000)">
            <g id="Dashboard" transform="translate(0.000000, 50.000000)">
                <g id="Atoms-/-icons-/System/-View_grid-_default" transform="translate(27.000000, 16.000000)">
                    <mask id="mask-2" fill="white">
                        <use xlink:href="#path-1"></use>
                    </mask>
                    <use id="Mask" fill="#98A7B9" fill-rule="evenodd" xlink:href="#path-1"></use>
                    <g id="Atoms-/-Colors-/-System-#4" mask="url(#mask-2)" fill="98A7B9" fill-rule="evenodd">
                        <rect id="Rectangle-Copy" x="0" y="0" width="18" height="18"></rect>
                    </g>
                </g>
            </g>
        </g>
    </g>
</svg>