<?xml version="1.0" encoding="UTF-8"?>
<svg width="60px" height="60px" viewBox="0 0 60 60" version="1.1" xmlns="http://www.w3.org/2000/svg" xmlns:xlink="http://www.w3.org/1999/xlink">
    <!-- Generator: Sketch 58 (84663) - https://sketch.com -->
    <title>instagram (2)</title>
    <desc>Created with Sketch.</desc>
    <g id="Cost-of-Fresh" stroke="none" stroke-width="1" fill="none" fill-rule="evenodd">
        <g id="#0.6-Dashboard" transform="translate(-1287.000000, -213.000000)" fill="#242E42" fill-rule="nonzero">
            <g id="social-media-stats" transform="translate(1236.000000, 126.000000)">
                <g id="instagram-(2)" transform="translate(51.000000, 87.000000)">
                    <path d="M35.7073163,29.970731 C35.7073163,33.1390236 33.1390236,35.7073163 29.970731,35.7073163 C26.8024384,35.7073163 24.2341458,33.1390236 24.2341458,29.970731 C24.2341458,26.8024384 26.8024384,24.2341458 29.970731,24.2341458 C33.1390236,24.2341458 35.7073163,26.8024384 35.7073163,29.970731 Z" id="Path"></path>
                    <path d="M43.3865844,19.8210362 C43.1108222,19.0737801 42.6708832,18.3974081 42.0992368,17.8422252 C41.544054,17.2705789 40.8681393,16.8306399 40.1204259,16.5548777 C39.5140235,16.3193594 38.6030479,16.039024 36.9251516,15.9626521 C35.1100602,15.8798777 34.5658529,15.8620423 29.970731,15.8620423 C25.3751519,15.8620423 24.8309445,15.8794204 23.0163104,15.9621948 C21.3384142,16.039024 20.4269813,16.3193594 19.8210362,16.5548777 C19.0733228,16.8306399 18.3969508,17.2705789 17.8422252,17.8422252 C17.2705789,18.3974081 16.8306399,19.0733228 16.5544204,19.8210362 C16.3189021,20.4274386 16.0385667,21.3388714 15.9621948,23.0167677 C15.8794204,24.8314018 15.861585,25.3756092 15.861585,29.9711883 C15.861585,34.5663102 15.8794204,35.1105175 15.9621948,36.9256089 C16.0385667,38.6035052 16.3189021,39.5144808 16.5544204,40.1208833 C16.8306399,40.8685967 17.2701216,41.5445113 17.841768,42.0996941 C18.3969508,42.6713405 19.0728654,43.1112796 19.8205788,43.3870417 C20.4269813,43.6230173 21.3384142,43.9033526 23.0163104,43.9797246 C24.8309445,44.0624991 25.3746946,44.0798771 29.9702737,44.0798771 C34.5663102,44.0798771 35.1105175,44.0624991 36.9246944,43.9797246 C38.6025906,43.9033526 39.5140235,43.6230173 40.1204259,43.3870417 C41.6213405,42.8080783 42.8076211,41.6217978 43.3865844,40.1208833 C43.6221027,39.5144808 43.902438,38.6035052 43.9792673,36.9256089 C44.0620417,35.1105175 44.0794198,34.5663102 44.0794198,29.9711883 C44.0794198,25.3756092 44.0620417,24.8314018 43.9792673,23.0167677 C43.9028953,21.3388714 43.62256,20.4274386 43.3865844,19.8210362 L43.3865844,19.8210362 Z M29.970731,38.807926 C25.0897861,38.807926 21.1330788,34.851676 21.1330788,29.970731 C21.1330788,25.0897861 25.0897861,21.1335361 29.970731,21.1335361 C34.8512187,21.1335361 38.807926,25.0897861 38.807926,29.970731 C38.807926,34.851676 34.8512187,38.807926 29.970731,38.807926 Z M39.1573162,22.8493897 C38.0167674,22.8493897 37.0920723,21.9246947 37.0920723,20.7841459 C37.0920723,19.6435971 38.0167674,18.718902 39.1573162,18.718902 C40.297865,18.718902 41.2225601,19.6435971 41.2225601,20.7841459 C41.2221028,21.9246947 40.297865,22.8493897 39.1573162,22.8493897 Z" id="Shape"></path>
                    <path d="M29.970731,0 C13.4208839,0 0,13.4208839 0,29.970731 C0,46.5205782 13.4208839,59.9414621 29.970731,59.9414621 C46.5205782,59.9414621 59.9414621,46.5205782 59.9414621,29.970731 C59.9414621,13.4208839 46.5205782,0 29.970731,0 Z M47.0766757,37.0660053 C46.9934441,38.8980174 46.702133,40.1487796 46.2768282,41.2435966 C45.3827733,43.5553344 43.5553344,45.3827733 41.2435966,46.2768282 C40.1492369,46.702133 38.8980174,46.9929868 37.0664626,47.0766757 C35.2312492,47.1603648 34.6449687,47.1804868 29.9711883,47.1804868 C25.2969507,47.1804868 24.7111275,47.1603648 22.8754568,47.0766757 C21.043902,46.9929868 19.7926825,46.702133 18.6983228,46.2768282 C17.5495423,45.8446636 16.5096033,45.1673771 15.6498472,44.2916149 C14.7745424,43.4323161 14.0972557,42.3919198 13.6650911,41.2435966 C13.2397863,40.1492369 12.9484753,38.8980174 12.8652436,37.0664626 C12.78064,35.230792 12.7609753,34.6445114 12.7609753,29.970731 C12.7609753,25.2969507 12.78064,24.7106701 12.8647863,22.8754568 C12.948018,21.0434447 13.2388716,19.7926825 13.6641766,18.6978655 C14.0963411,17.5495423 14.774085,16.509146 15.6498472,15.6498472 C16.509146,14.774085 17.5495423,14.0967984 18.6978655,13.6646338 C19.7926825,13.239329 21.0434447,12.9484753 22.8754568,12.8647863 C24.7106701,12.7810973 25.2969507,12.7609753 29.970731,12.7609753 C34.6445114,12.7609753 35.230792,12.7810973 37.0660053,12.8652436 C38.8980174,12.9484753 40.1487796,13.239329 41.2435966,13.6641766 C42.3919198,14.0963411 43.4323161,14.774085 44.2920722,15.6498472 C45.1673771,16.5096033 45.8451209,17.5495423 46.2768282,18.6978655 C46.7025904,19.7926825 46.9934441,21.0434447 47.0771332,22.8754568 C47.1608221,24.7106701 47.1804868,25.2969507 47.1804868,29.970731 C47.1804868,34.6445114 47.1608221,35.230792 47.0766757,37.0660053 L47.0766757,37.0660053 Z" id="Shape"></path>
                </g>
            </g>
        </g>
    </g>
</svg>