<?xml version="1.0" encoding="UTF-8"?>
<svg width="14px" height="14px" viewBox="0 0 14 14" version="1.1" xmlns="http://www.w3.org/2000/svg" xmlns:xlink="http://www.w3.org/1999/xlink">
    <!-- Generator: Sketch 58 (84663) - https://sketch.com -->
    <title>icon</title>
    <desc>Created with Sketch.</desc>
    <g id="Cost-of-Fresh" stroke="none" stroke-width="1" fill="none" fill-rule="evenodd">
        <g id="#0.6-Dashboard" transform="translate(-29.000000, -869.000000)" fill="#98A7B9" fill-rule="nonzero">
            <g id="Side-Navigation/Expanded">
                <g id="logout" transform="translate(0.000000, 850.000000)">
                    <g id="icon" transform="translate(29.000000, 19.000000)">
                        <path d="M6.97675781,12.8139648 L1.74417578,12.8139648 C1.42324219,12.8139648 1.16279297,12.5534883 1.16279297,12.232582 L1.16279297,1.76744531 C1.16279297,1.44651172 1.42326953,1.1860625 1.74417578,1.1860625 L6.97675781,1.1860625 C7.29826563,1.1860625 7.55814063,0.9261875 7.55814063,0.604679688 C7.55814063,0.283171875 7.29826563,0.0232421875 6.97675781,0.0232421875 L1.74417578,0.0232421875 C0.782550781,0.0232421875 0,0.805820312 0,1.76744531 L0,12.2325547 C0,13.1941797 0.782550781,13.9767305 1.74417578,13.9767305 L6.97675781,13.9767305 C7.29826563,13.9767305 7.55814063,13.7168555 7.55814063,13.3953477 C7.55814063,13.0738398 7.29826563,12.8139648 6.97675781,12.8139648 Z" id="Path"></path>
                        <path d="M13.82675,6.58604297 L10.2918594,3.09766406 C10.0639492,2.87207812 9.69535547,2.87500391 9.46976953,3.10348828 C9.24418359,3.33197266 9.24650781,3.69999219 9.47559375,3.92557812 L12.0017461,6.41858984 L5.23255469,6.41858984 C4.91104687,6.41858984 4.65117187,6.67846484 4.65117187,6.99997266 C4.65117187,7.32148047 4.91104687,7.58138281 5.23255469,7.58138281 L12.0017461,7.58138281 L9.47559375,10.0743945 C9.24653516,10.2999805 9.24478516,10.668 9.46976953,10.8964844 C9.58371094,11.0116016 9.73371875,11.0697344 9.88372656,11.0697344 C10.0314102,11.0697344 10.1790664,11.0139258 10.2918594,10.9022812 L13.82675,7.41390234 C13.9372187,7.30460938 14,7.15575 14,6.99994531 C14,6.84419531 13.937793,6.6959375 13.82675,6.58604297 Z" id="Path"></path>
                    </g>
                </g>
            </g>
        </g>
    </g>
</svg>