<?xml version="1.0" encoding="UTF-8"?>
<svg width="11px" height="11px" viewBox="0 0 11 11" version="1.1" xmlns="http://www.w3.org/2000/svg" xmlns:xlink="http://www.w3.org/1999/xlink">
    <!-- Generator: Sketch 58 (84663) - https://sketch.com -->
    <title>on icon</title>
    <desc>Created with Sketch.</desc>
    <defs>
        <path d="M4.4166208,1.36944374 L4.41666667,6.58333333 L9.63055626,6.5833792 C9.34347867,8.88537208 7.37976116,10.6666667 5,10.6666667 C2.42267117,10.6666667 0.333333333,8.57732883 0.333333333,6 C0.333333333,3.62023884 2.11462792,1.65652133 4.4166208,1.36944374 Z M6.16666667,0.166666667 C8.7439955,0.166666667 10.8333333,2.2560045 10.8333333,4.83333333 C10.8333333,5.0308852 10.8210581,5.22557003 10.7972286,5.41666667 L5.58333333,5.41666667 L5.58333333,0.202771357 C5.77442997,0.178941943 5.9691148,0.166666667 6.16666667,0.166666667 Z M4.57523821,1.35240447 L4.5268835,1.35702 C4.54297775,1.35539957 4.55909612,1.35386092 4.57523821,1.35240447 L4.57523821,1.35240447 Z M5,1.33333333 L4.78739153,1.33809027 L4.77636969,1.33859738 C4.85047395,1.33510115 4.92503053,1.33333333 5,1.33333333 Z" id="path-1"></path>
    </defs>
    <g id="Cost-of-Fresh" stroke="none" stroke-width="1" fill="none" fill-rule="evenodd">
        <g id="#1.4-Projections" transform="translate(-32.000000, -368.000000)">
            <g id="Projections" transform="translate(0.000000, 350.000000)">
                <g id="on-icon" transform="translate(32.000000, 18.000000)">
                    <mask id="mask-2" fill="white">
                        <use xlink:href="#path-1"></use>
                    </mask>
                    <use id="Mask" fill="#44556B" xlink:href="#path-1"></use>
                    <g id="Color" mask="url(#mask-2)" fill="#97A6B9">
                        <g transform="translate(-2.000000, -1.000000)" id="Rectangle-Copy-3">
                            <rect x="0" y="0" width="13.8478261" height="13.8478261"></rect>
                        </g>
                    </g>
                </g>
            </g>
        </g>
    </g>
</svg>