<svg height="12" viewBox="0 0 12 12" width="12" xmlns="http://www.w3.org/2000/svg" xmlns:xlink="http://www.w3.org/1999/xlink"><defs><path id="a" d="m5 9.75c.55228475 0 1 .4477153 1 1v3.25c0 .5522847-.44771525 1-1 1h-1c-.55228475 0-1-.4477153-1-1v-3.25c0-.5522847.44771525-1 1-1zm4.5-6.75c.5522847 0 1 .44771525 1 1v10c0 .5522847-.4477153 1-1 1h-1c-.55228475 0-1-.4477153-1-1v-10c0-.55228475.44771525-1 1-1zm4.5 4.5c.5522847 0 1 .44771525 1 1v5.5c0 .5522847-.4477153 1-1 1h-1c-.5522847 0-1-.4477153-1-1v-5.5c0-.55228475.4477153-1 1-1z"/><mask id="b" fill="#fff"><use fill="#fff" fill-rule="evenodd" xlink:href="#a"/></mask></defs><g fill="none" fill-rule="evenodd" transform="translate(-3 -3)"><use fill="#44556b" xlink:href="#a"/><g fill="#cfd7db" mask="url(#b)" opacity=".5"><path d="m0 0h18v18h-18z"/></g></g></svg>