<?xml version="1.0" encoding="UTF-8"?>
<svg width="12px" height="12px" viewBox="0 0 12 12" version="1.1" xmlns="http://www.w3.org/2000/svg" xmlns:xlink="http://www.w3.org/1999/xlink">
    <!-- Generator: Sketch 58 (84663) - https://sketch.com -->
    <title>off icon</title>
    <desc>Created with Sketch.</desc>
    <defs>
        <path d="M8.91666667,6.58333333 L6,6.58333333 L6,9.5 L8.91666667,9.5 L8.91666667,6.58333333 L8.91666667,6.58333333 Z M8.33333333,0.166666667 L8.33333333,1.33333333 L3.66666667,1.33333333 L3.66666667,0.166666667 L2.5,0.166666667 L2.5,1.33333333 L1.91666667,1.33333333 C1.26916667,1.33333333 0.755833333,1.85833333 0.755833333,2.5 L0.75,10.6666667 C0.75,11.3083333 1.26916667,11.8333333 1.91666667,11.8333333 L10.0833333,11.8333333 C10.725,11.8333333 11.25,11.3083333 11.25,10.6666667 L11.25,2.5 C11.25,1.85833333 10.725,1.33333333 10.0833333,1.33333333 L9.5,1.33333333 L9.5,0.166666667 L8.33333333,0.166666667 L8.33333333,0.166666667 Z M10.0833333,10.6666667 L1.91666667,10.6666667 L1.91666667,4.25 L10.0833333,4.25 L10.0833333,10.6666667 L10.0833333,10.6666667 Z" id="path-1"></path>
    </defs>
    <g id="COF-Symbols" stroke="none" stroke-width="1" fill="none" fill-rule="evenodd">
        <g id="Side-Navigation/Expanded" transform="translate(-30.000000, -270.000000)">
            <g id="Scheduler" transform="translate(0.000000, 250.000000)">
                <g id="off-icon" transform="translate(30.000000, 20.000000)">
                    <mask id="mask-2" fill="white">
                        <use xlink:href="#path-1"></use>
                    </mask>
                    <use id="Mask" fill-opacity="0.7" fill="#000000" xlink:href="#path-1"></use>
                    <g id="Color" mask="url(#mask-2)" fill="#98A7B9">
                        <g transform="translate(-1.000000, -1.000000)" id="Rectangle-Copy-4">
                            <rect x="0" y="0" width="14" height="14"></rect>
                        </g>
                    </g>
                </g>
            </g>
        </g>
    </g>
</svg>