<?xml version="1.0" encoding="UTF-8"?>
<svg width="78px" height="78px" viewBox="0 0 78 78" version="1.1" xmlns="http://www.w3.org/2000/svg" xmlns:xlink="http://www.w3.org/1999/xlink">
    <!-- Generator: Sketch 58 (84663) - https://sketch.com -->
    <title>Group 3</title>
    <desc>Created with Sketch.</desc>
    <defs>
        <path d="M18.2187493,22.8020833 L17.3839279,21.9713542 L22.999999,16.3072917 L28.6919629,21.9713542 L27.7812487,22.8020833 L23.6071418,18.7239583 L23.6071418,37 L22.3928562,37 L22.3928562,18.7239583 L18.2187493,22.8020833 Z M33.8526769,17.0625 C35.5729235,17.0625 37.027522,17.691834 38.2165159,18.9505208 C39.4055099,20.2092077 40,21.7196092 40,23.4817708 C40,25.1935849 39.3928612,26.6662265 38.1785695,27.8997396 C36.9642778,29.1332527 35.4970307,29.75 33.7767841,29.75 L26.1116059,29.75 L26.1116059,28.5416667 L33.7767841,28.5416667 C35.1934577,28.5416667 36.3824339,28.0507862 37.3437481,27.0690104 C38.3050624,26.0872347 38.7857123,24.8915001 38.7857123,23.4817708 C38.7857123,22.0720416 38.2924137,20.838547 37.3058017,19.78125 C36.3191897,18.723953 35.1428622,18.1953125 33.7767841,18.1953125 L32.6383913,18.1197917 L32.6383913,16.609375 C32.6383913,14.4947811 31.892119,12.7200593 30.3995521,11.2851562 C28.9069852,9.85025324 27.0982237,9.1328125 24.9732132,9.1328125 C23.5565395,9.1328125 22.2284278,9.53558625 20.9888384,10.3411458 C19.7492489,11.1467054 18.8005978,12.2039865 18.1428564,13.5130208 L17.6874993,14.4947917 L16.6249994,14.0416667 C16.1190445,13.7899293 15.6130972,13.6640625 15.1071423,13.6640625 C14.2976145,13.6640625 13.5766396,13.9409695 12.944196,14.4947917 C12.3117524,15.0486139 11.9196433,15.7534679 11.7678568,16.609375 L11.6919639,17.2890625 L11.0089283,17.515625 C9.89582754,17.8680573 8.98512241,18.547738 8.27678558,19.5546875 C7.56844875,20.561637 7.21428564,21.6692648 7.21428564,22.8776042 C7.21428564,24.4383759 7.75817898,25.7725639 8.84598197,26.8802083 C9.93378497,27.9878528 11.2618966,28.5416667 12.8303567,28.5416667 L19.7366063,28.5416667 L19.7366063,29.75 L12.8303567,29.75 C10.9077282,29.75 9.28869686,29.0954927 7.97321417,27.7864583 C6.65773148,26.477424 6,24.866329 6,22.953125 C6,21.4427008 6.4300552,20.0959261 7.29017849,18.9127604 C8.15030179,17.7295948 9.26338583,16.9114606 10.629464,16.4583333 C10.831846,15.3506889 11.3504419,14.4192746 12.1852675,13.6640625 C13.020093,12.9088504 13.9940416,12.53125 15.1071423,12.53125 C15.8154791,12.53125 16.4732106,12.6822902 17.0803565,12.984375 C17.7886933,11.4739508 18.8638313,10.2656295 20.3058027,9.359375 C21.7477741,8.45312047 23.3288594,8 25.049106,8 C27.4776894,8 29.564722,8.85589422 31.3102663,10.5677083 C33.0558107,12.2795224 33.9285698,14.3437379 33.9285698,16.7604167 L33.9285698,16.9114583 L33.8526769,17.0625 Z" id="path-1"></path>
    </defs>
    <g id="Cost-of-Fresh" stroke="none" stroke-width="1" fill="none" fill-rule="evenodd">
        <g id="#1.22-Roles" transform="translate(-303.000000, -191.000000)">
            <g id="Group-3" transform="translate(303.000000, 191.000000)">
                <g id="photo-icon" fill="#98A7B9">
                    <circle id="Oval" cx="38.7999977" cy="38.7999977" r="38.3999977"></circle>
                </g>
                <g id="assets/icons/ionicicons/cloud-upload-outline" transform="translate(17.000000, 16.000000)">
                    <mask id="mask-2" fill="white">
                        <use xlink:href="#path-1"></use>
                    </mask>
                    <use id="ion-ios-cloud-upload-outline---Ionicons" fill="#000000" fill-rule="evenodd" xlink:href="#path-1"></use>
                    <g id="pallete/basic/light" mask="url(#mask-2)" fill="#FFFFFF" fill-rule="evenodd">
                        <rect id="bg" x="0" y="0" width="44.7999973" height="44.7999973"></rect>
                    </g>
                </g>
            </g>
        </g>
    </g>
</svg>